<svg width="177" height="119" viewBox="0 0 177 119" fill="none" xmlns="http://www.w3.org/2000/svg">
<circle cx="71.3226" cy="34.3805" r="1.5" transform="rotate(-59.2607 71.3226 34.3805)" fill="black"/>
<circle cx="20.2093" cy="120.331" r="1.5" transform="rotate(-59.2607 20.2093 120.331)" fill="black"/>
<circle cx="89.3719" cy="45.1143" r="1.5" transform="rotate(-59.2607 89.3719 45.1143)" fill="black"/>
<circle cx="84.1009" cy="12.8929" r="1.5" transform="rotate(-59.2607 84.1009 12.8929)" fill="black"/>
<circle cx="32.9876" cy="98.8432" r="1.5" transform="rotate(-59.2607 32.9876 98.8432)" fill="black"/>
<circle cx="102.15" cy="23.6268" r="1.5" transform="rotate(-59.2607 102.15 23.6268)" fill="black"/>
<circle cx="51.0369" cy="109.577" r="1.5" transform="rotate(-59.2607 51.0369 109.577)" fill="black"/>
<circle cx="45.7659" cy="77.3556" r="1.5" transform="rotate(-59.2607 45.7659 77.3556)" fill="black"/>
<circle cx="63.8152" cy="88.0894" r="1.5" transform="rotate(-59.2607 63.8152 88.0894)" fill="black"/>
<circle cx="58.5442" cy="55.868" r="1.5" transform="rotate(-59.2607 58.5442 55.868)" fill="black"/>
<circle cx="76.5936" cy="66.6018" r="1.5" transform="rotate(-59.2607 76.5936 66.6018)" fill="black"/>
<circle cx="53.2727" cy="23.6467" r="1.5" transform="rotate(-59.2607 53.2727 23.6467)" fill="black"/>
<circle cx="2.15996" cy="109.597" r="1.5" transform="rotate(-59.2607 2.15996 109.597)" fill="black"/>
<circle cx="66.0511" cy="2.15917" r="1.5" transform="rotate(-59.2607 66.0511 2.15917)" fill="black"/>
<circle cx="14.9378" cy="88.1094" r="1.5" transform="rotate(-59.2607 14.9378 88.1094)" fill="black"/>
<circle cx="27.7161" cy="66.6218" r="1.5" transform="rotate(-59.2607 27.7161 66.6218)" fill="black"/>
<circle cx="40.4944" cy="45.1343" r="1.5" transform="rotate(-59.2607 40.4944 45.1343)" fill="black"/>
<circle cx="107.422" cy="55.848" r="1.5" transform="rotate(-59.2607 107.422 55.848)" fill="black"/>
<circle cx="120.2" cy="34.3605" r="1.5" transform="rotate(-59.2607 120.2 34.3605)" fill="black"/>
<circle cx="69.0867" cy="120.311" r="1.5" transform="rotate(-59.2607 69.0867 120.311)" fill="black"/>
<circle cx="81.865" cy="98.8232" r="1.5" transform="rotate(-59.2607 81.865 98.8232)" fill="black"/>
<circle cx="94.6434" cy="77.3356" r="1.5" transform="rotate(-59.2607 94.6434 77.3356)" fill="black"/>
<circle cx="125.471" cy="66.5819" r="1.5" transform="rotate(-59.2607 125.471 66.5819)" fill="black"/>
<circle cx="138.249" cy="45.0943" r="1.5" transform="rotate(-59.2607 138.249 45.0943)" fill="black"/>
<circle cx="99.9144" cy="109.557" r="1.5" transform="rotate(-59.2607 99.9144 109.557)" fill="black"/>
<circle cx="112.693" cy="88.0694" r="1.5" transform="rotate(-59.2607 112.693 88.0694)" fill="black"/>
<circle cx="161.57" cy="88.0494" r="1.5" transform="rotate(-59.2607 161.57 88.0494)" fill="black"/>
<circle cx="174.348" cy="66.5619" r="1.5" transform="rotate(-59.2607 174.348 66.5619)" fill="black"/>
<circle cx="148.792" cy="109.537" r="1.5" transform="rotate(-59.2607 148.792 109.537)" fill="black"/>
<circle cx="143.521" cy="77.3156" r="1.5" transform="rotate(-59.2607 143.521 77.3156)" fill="black"/>
<circle cx="156.299" cy="55.828" r="1.5" transform="rotate(-59.2607 156.299 55.828)" fill="black"/>
<circle cx="117.964" cy="120.291" r="1.5" transform="rotate(-59.2607 117.964 120.291)" fill="black"/>
<circle cx="130.742" cy="98.8031" r="1.5" transform="rotate(-59.2607 130.742 98.8031)" fill="black"/>
</svg>
