<!-- Generated by IcoMoon.io -->
<svg version="1.1" xmlns="http://www.w3.org/2000/svg" viewBox="0 0 768 768">
<title></title>
<g id="icomoon-ignore">
</g>
<path fill="#000" d="M358.547 157.452l190.544 190.544h-417.091c-19.872 0-35.998 16.126-35.998 35.998s16.127 35.998 35.998 35.998h417.091l-190.544 190.544c-14.075 14.075-14.075 36.863 0 50.903s36.863 14.075 50.903 0l251.996-251.996c3.313-3.313 5.974-7.27 7.81-11.664 3.637-8.821 3.637-18.757 0-27.575-1.763-4.246-4.355-8.208-7.81-11.664l-251.996-251.996c-14.074-14.074-36.862-14.074-50.903 0s-14.075 36.862 0 50.903z"></path>
</svg>
