<!-- Generated by IcoMoon.io -->
<svg version="1.1" xmlns="http://www.w3.org/2000/svg" viewBox="0 0 768 768">
<title></title>
<g id="icomoon-ignore">
</g>
<path fill="#000" d="M589.408 698.048c5.152 3.712 11.616 5.952 18.592 5.952 17.664 0 32-14.336 32-32v-512c0-26.496-10.784-50.56-28.128-67.872s-41.376-28.128-67.872-28.128h-320c-26.496 0-50.56 10.784-67.872 28.128s-28.128 41.376-28.128 67.872v512c-0.032 6.368 1.92 12.928 5.952 18.592 10.272 14.368 30.272 17.728 44.64 7.424l205.408-146.688zM576 609.824l-173.408-123.872c-11.36-8.128-26.208-7.744-37.184 0l-173.408 123.872v-449.824c0-8.832 3.552-16.8 9.376-22.624s13.792-9.376 22.624-9.376h320c8.832 0 16.8 3.552 22.624 9.376s9.376 13.792 9.376 22.624z"></path>
</svg>
