<!-- Generated by IcoMoon.io -->
<svg version="1.1" xmlns="http://www.w3.org/2000/svg" viewBox="0 0 768 768">
<title></title>
<g id="icomoon-ignore">
</g>
<path fill="#000" d="M544 672h-320c-52.928 0-96-43.072-96-96v-384c0-52.928 43.072-96 96-96h320c52.928 0 96 43.072 96 96v384c0 52.928-43.072 96-96 96zM224 160c-17.632 0-32 14.368-32 32v384c0 17.632 14.368 32 32 32h320c17.632 0 32-14.368 32-32v-384c0-17.632-14.368-32-32-32h-320z"></path>
<path fill="#000" d="M512 352h-256c-8.832 0-16-7.168-16-16s7.168-16 16-16h256c8.832 0 16 7.168 16 16s-7.168 16-16 16z"></path>
<path fill="#000" d="M512 256h-256c-8.832 0-16-7.168-16-16s7.168-16 16-16h256c8.832 0 16 7.168 16 16s-7.168 16-16 16z"></path>
<path fill="#000" d="M512 448h-256c-8.832 0-16-7.168-16-16s7.168-16 16-16h256c8.832 0 16 7.168 16 16s-7.168 16-16 16z"></path>
<path fill="#000" d="M512 544h-256c-8.832 0-16-7.168-16-16s7.168-16 16-16h256c8.832 0 16 7.168 16 16s-7.168 16-16 16z"></path>
</svg>
