<svg viewBox="0 0 225 352" fill="none" xmlns="http://www.w3.org/2000/svg">
<path d="M224.5 85.5V111C224.5 115.5 221 119 216.5 119H174.5C166.75 167 130 198.25 73.25 205C110.5 244.75 150.25 292.75 188 339C190 341.25 190.5 344.75 189 347.5C187.75 350.25 185 352 181.75 352H133C130.5 352 128.25 351 126.75 349C86.5 300.75 49.5 256.5 2.25 206.25C0.75 204.75 0 202.75 0 200.75V169C0 164.75 3.5 161 8 161H36C80 161 107.5 146.25 114.75 119H8C3.5 119 0 115.5 0 111V85.5C0 81 3.5 77.5 8 77.5H111.25C101.75 58.75 79.25 49.25 44.25 49.25H8C3.5 49.25 0 45.5 0 41.25V8C0 3.5 3.5 0 8 0H216C220.5 0 224 3.5 224 8V33.5C224 38 220.5 41.5 216 41.5H157.75C165.75 51.75 171 63.75 173.75 77.5H216.5C221 77.5 224.5 81 224.5 85.5Z" fill="black"/>
</svg>
