<!-- Generated by IcoMoon.io -->
<svg version="1.1" xmlns="http://www.w3.org/2000/svg"  viewBox="0 0 768 768">
<title></title>
<g id="icomoon-ignore">
</g>
<path fill="#000" d="M607.5 480v-64.5h-63v64.5h63zM607.5 607.5v-63h-63v63h63zM415.5 223.5v-63h-63v63h63zM415.5 352.5v-64.5h-63v64.5h63zM415.5 480v-64.5h-63v64.5h63zM415.5 607.5v-63h-63v63h63zM223.5 352.5v-64.5h-63v64.5h63zM223.5 480v-64.5h-63v64.5h63zM223.5 607.5v-63h-63v63h63zM480 352.5h192v319.5h-576v-448.5h192v-63l96-96 96 96v192z"></path>
</svg>
