<!-- Generated by IcoMoon.io -->
<svg version="1.1" xmlns="http://www.w3.org/2000/svg" viewBox="0 0 512 512">
<title></title>
<g id="icomoon-ignore">
</g>
<path fill="#000" d="M464.208 0.944v-0.8h-155.936c-2.752-0.352-5.552-0.256-8.144 0.832-4.736 1.264-8.672 4.4-10.592 8.832l-285.072 285.056c-6.224 6.24-6.224 16.336 0 22.56l189.952 189.952c6.24 6.224 16.336 6.224 22.56 0l284.24-284.256c6.336-2.128 10.992-7.936 10.992-14.992v-152c0-28.176-20.896-51.264-48-55.184zM416.208 128.144c-17.664 0-32-14.336-32-32s14.336-32 32-32 32 14.336 32 32-14.336 32-32 32z"></path>
</svg>
